# 3ds Max Wavefront OBJ Exporter v0.97b - (c)2007 guruware
# File Created: 27.05.2016 21:59:09

mtllib stop sign.mtl

#
# object Cylinder004
#

v  -63.4325 -1.9009 -6.8503
v  -72.6868 -1.9009 -25.0226
v  -54.1156 -1.9009 -25.2627
v  -40.2492 -1.9009 -13.9249
v  -86.8540 -1.9009 1.0164
v  -87.0941 -1.9009 -14.1374
v  -53.5360 -1.9009 11.3219
v  -72.8991 -1.9009 11.5620
v  -40.0091 -1.9009 1.2289
v  -36.7864 -2.1604 -14.9564
v  -52.6652 -2.1604 -27.9395
v  -52.6652 1.9348 -27.9395
v  -36.7864 1.9348 -14.9564
v  -73.9315 -2.1604 -27.6645
v  -73.9315 1.9348 -27.6645
v  -90.4298 -2.1604 -15.1997
v  -90.4298 1.9348 -15.1997
v  -90.1548 -2.1604 2.1534
v  -90.1548 1.9348 2.1534
v  -74.1747 -2.1604 14.2294
v  -74.1747 1.9348 14.2294
v  -52.0015 -2.1604 13.9545
v  -52.0015 1.9348 13.9545
v  -36.5115 -2.1604 2.3967
v  -36.5115 1.9348 2.3967
v  -63.4325 1.6753 -6.8503
v  -40.0091 1.6753 1.2289
v  -40.2492 1.6753 -13.9249
v  -54.1156 1.6753 -25.2627
v  -72.6868 1.6753 -25.0226
v  -87.0941 1.6753 -14.1374
v  -86.8540 1.6753 1.0164
v  -72.8991 1.6753 11.5620
v  -53.5360 1.6753 11.3219
v  -63.4212 1.7465 60.4511
v  -64.8191 1.1675 60.4511
v  -65.3981 -0.2305 60.4511
v  -61.4442 -0.2305 60.4511
v  -64.8191 -1.6284 60.4511
v  -63.4212 -2.2074 60.4511
v  -62.0233 -1.6284 60.4511
v  -62.0233 1.1675 60.4511
v  -62.0233 -1.6284 13.2274
v  -61.4442 -0.2305 13.2274
v  -63.4212 -2.2074 13.2274
v  -64.8191 -1.6284 13.2274
v  -65.3981 -0.2305 13.2274
v  -64.8191 1.1675 13.2274
v  -63.4212 1.7465 13.2274
v  -62.0233 1.1675 13.2274
# 50 vertices

vn 0.0000 -1.0000 -0.0000
vn 0.9999 0.0000 -0.0143
vn 0.6980 0.0000 -0.7161
vn 0.1062 0.0000 -0.9943
vn -0.6292 0.0000 -0.7773
vn -0.9994 0.0000 0.0334
vn -0.6843 0.0000 0.7292
vn -0.1094 0.0000 0.9940
vn 0.6268 0.0000 0.7791
vn 0.0000 1.0000 -0.0000
vn -0.0356 -0.9992 0.0172
vn -0.0183 -0.9990 0.0406
vn 0.0087 -0.9991 0.0405
vn 0.0325 -0.9994 0.0146
vn 0.0361 -0.9992 -0.0191
vn 0.0183 -0.9990 -0.0407
vn -0.0079 -0.9992 -0.0383
vn -0.0310 -0.9994 -0.0139
vn -0.0356 0.9992 0.0172
vn -0.0183 0.9990 0.0406
vn 0.0087 0.9991 0.0405
vn 0.0325 0.9994 0.0146
vn 0.0361 0.9992 -0.0191
vn 0.0183 0.9990 -0.0407
vn -0.0079 0.9992 -0.0383
vn -0.0310 0.9994 -0.0139
vn -0.2821 0.7445 0.6051
vn -0.6106 0.6690 0.4237
vn -0.9828 0.0000 0.1845
vn 0.4904 -0.0000 0.8715
vn -0.6106 -0.6690 0.4237
vn -0.2821 -0.7445 0.6051
vn 0.0679 -0.6690 0.7401
vn 0.0679 0.6690 0.7401
vn 0.6106 -0.6690 -0.4237
vn 0.9828 0.0000 -0.1845
vn 0.2821 -0.7445 -0.6051
vn -0.0679 -0.6690 -0.7401
vn -0.4904 -0.0000 -0.8715
vn -0.0679 0.6690 -0.7401
vn 0.2821 0.7445 -0.6051
vn 0.6106 0.6690 -0.4237
# 42 vertex normals

vt 0.5000 0.0000 0.0000
vt 0.7704 0.0000 0.4074
vt 0.8750 0.0000 1.0000
vt 0.7500 0.0000 1.0000
vt 0.2500 0.0000 1.0000
vt 0.1250 0.0000 1.0000
vt 0.0000 0.0000 1.0000
vt 0.5000 0.0000 1.0000
vt 0.3750 0.0000 1.0000
vt 0.6250 0.0000 1.0000
vt 0.8750 1.0000 1.0000
vt 0.7500 1.0000 1.0000
vt -0.1250 0.0000 1.0000
vt 0.0000 1.0000 1.0000
vt -0.1250 1.0000 1.0000
vt 0.1250 1.0000 1.0000
vt 0.2500 1.0000 1.0000
vt 0.3750 1.0000 1.0000
vt 0.5000 1.0000 1.0000
vt 0.6250 1.0000 1.0000
vt 0.5000 1.0000 0.0000
vt 0.2197 0.0000 -0.4142
vt 0.1250 0.0000 -1.0000
vt 0.2500 0.0000 -1.0000
vt 0.5214 0.0000 -0.4142
vt 0.7803 0.0000 0.4142
vt 0.4786 0.0000 0.4142
vt 0.7803 1.0000 0.4142
vt 0.2197 1.0000 -0.4142
vt 0.5214 1.0000 -0.4142
vt 0.2500 1.0000 -1.0000
vt 0.1250 1.0000 -1.0000
# 32 texture coords

g Cylinder004
usemtl wire_085028177
s 1
f 1/1/1 2/2/1 3/3/1 4/4/1 
f 1/1/1 5/5/1 6/6/1 2/7/1 
f 1/1/1 7/8/1 8/9/1 5/5/1 
f 1/1/1 4/4/1 9/10/1 7/8/1 
s 8
f 10/4/2 11/3/3 12/11/3 13/12/2 
f 11/13/3 14/7/4 15/14/4 12/15/3 
f 14/7/4 16/6/5 17/16/5 15/14/4 
f 16/6/5 18/5/6 19/17/6 17/16/5 
f 18/5/6 20/9/7 21/18/7 19/17/6 
f 20/9/7 22/8/8 23/19/8 21/18/7 
f 22/8/8 24/10/9 25/20/9 23/19/8 
f 24/10/9 10/4/2 13/12/2 25/20/9 
s 1
f 26/21/10 27/20/10 28/12/10 29/11/10 
f 26/21/10 29/15/10 30/14/10 31/16/10 
f 26/21/10 31/16/10 32/17/10 33/18/10 
f 26/21/10 33/18/10 34/19/10 27/20/10 
s off
f 4/4/11 3/3/11 11/3/11 10/4/11 
f 3/13/12 2/7/12 14/7/12 11/13/12 
f 2/7/13 6/6/13 16/6/13 14/7/13 
f 6/6/14 5/5/14 18/5/14 16/6/14 
f 5/5/15 8/9/15 20/9/15 18/5/15 
f 8/9/16 7/8/16 22/8/16 20/9/16 
f 7/8/17 9/10/17 24/10/17 22/8/17 
f 9/10/18 4/4/18 10/4/18 24/10/18 
f 29/11/19 28/12/19 13/12/19 12/11/19 
f 30/14/20 29/15/20 12/15/20 15/14/20 
f 31/16/21 30/14/21 15/14/21 17/16/21 
f 32/17/22 31/16/22 17/16/22 19/17/22 
f 33/18/23 32/17/23 19/17/23 21/18/23 
f 34/19/24 33/18/24 21/18/24 23/19/24 
f 27/20/25 34/19/25 23/19/25 25/20/25 
f 28/12/26 27/20/26 25/20/26 13/12/26 
s 2
f 35/22/27 36/23/28 37/24/29 38/4/30 
f 37/24/29 39/25/31 40/26/32 38/4/30 
f 40/26/32 41/3/33 38/4/30 
f 42/27/34 35/22/27 38/4/30 
f 38/4/30 41/3/33 43/11/35 44/12/36 
f 41/13/33 40/7/32 45/14/37 43/15/35 
f 40/7/32 39/6/31 46/16/38 45/14/37 
f 39/6/31 37/5/29 47/17/39 46/16/38 
f 37/5/29 36/9/28 48/18/40 47/17/39 
f 36/9/28 35/8/27 49/19/41 48/18/40 
f 35/8/27 42/10/34 50/20/42 49/19/41 
f 42/10/34 38/4/30 44/12/36 50/20/42 
f 44/12/36 43/11/35 45/28/37 49/29/41 
f 45/28/37 46/30/38 47/31/39 49/29/41 
f 47/31/39 48/32/40 49/29/41 
f 50/20/42 44/12/36 49/29/41 
# 44 polygons - 4 triangles

#
# object Cylinder005
#

v  0.8350 -1.9009 -6.8503
v  -8.4192 -1.9009 -25.0226
v  10.1520 -1.9009 -25.2627
v  24.0184 -1.9009 -13.9249
v  -22.5865 -1.9009 1.0164
v  -22.8266 -1.9009 -14.1374
v  10.7316 -1.9009 11.3219
v  -8.6315 -1.9009 11.5620
v  24.2585 -1.9009 1.2289
v  27.4812 -2.1604 -14.9564
v  11.6023 -2.1604 -27.9395
v  11.6023 1.9348 -27.9395
v  27.4812 1.9348 -14.9564
v  -9.6640 -2.1604 -27.6645
v  -9.6640 1.9348 -27.6645
v  -26.1622 -2.1604 -15.1997
v  -26.1622 1.9348 -15.1997
v  -25.8873 -2.1604 2.1534
v  -25.8873 1.9348 2.1534
v  -9.9071 -2.1604 14.2294
v  -9.9071 1.9348 14.2294
v  12.2660 -2.1604 13.9545
v  12.2660 1.9348 13.9545
v  27.7561 -2.1604 2.3967
v  27.7561 1.9348 2.3967
v  0.8350 1.6753 -6.8503
v  24.2585 1.6753 1.2289
v  24.0184 1.6753 -13.9249
v  10.1520 1.6753 -25.2627
v  -8.4192 1.6753 -25.0226
v  -22.8266 1.6753 -14.1374
v  -22.5865 1.6753 1.0164
v  -8.6315 1.6753 11.5620
v  10.7316 1.6753 11.3219
v  -0.2707 5.7402 63.5196
v  -4.4926 3.9914 63.5196
v  -6.2414 -0.2305 63.5196
v  5.6999 -0.2305 63.5196
v  -4.4926 -4.4523 63.5196
v  -0.2707 -6.2011 63.5196
v  3.9511 -4.4523 63.5196
v  3.9511 3.9914 63.5196
v  1.7062 -0.2305 59.8381
v  1.1272 -1.6284 59.8381
v  1.1272 -1.6284 13.2274
v  1.7062 -0.2305 13.2274
v  -0.2707 -2.2074 59.8381
v  -0.2707 -2.2074 13.2274
v  -1.6687 -1.6284 59.8381
v  -1.6687 -1.6284 13.2274
v  -2.2477 -0.2305 59.8381
v  -2.2477 -0.2305 13.2274
v  -1.6687 1.1675 59.8381
v  -1.6687 1.1675 13.2274
v  -0.2707 1.7465 59.8381
v  -0.2707 1.7465 13.2274
v  1.1272 1.1675 59.8381
v  1.1272 1.1675 13.2274
v  4.5370 -0.2305 60.0070
v  3.1289 -3.6301 60.0070
v  -0.2707 -5.0382 60.0070
v  -3.6703 -3.6301 60.0070
v  -5.0785 -0.2305 60.0070
v  -3.6703 3.1691 60.0070
v  -0.2707 4.5773 60.0070
v  3.1289 3.1691 60.0070
# 66 vertices

vn 0.0000 -1.0000 -0.0000
vn 0.9999 0.0000 -0.0143
vn 0.6980 0.0000 -0.7161
vn 0.1062 0.0000 -0.9943
vn -0.6292 0.0000 -0.7773
vn -0.9994 0.0000 0.0334
vn -0.6843 0.0000 0.7292
vn -0.1094 0.0000 0.9940
vn 0.6268 0.0000 0.7791
vn 0.0000 1.0000 -0.0000
vn -0.0356 -0.9992 0.0172
vn -0.0183 -0.9990 0.0406
vn 0.0087 -0.9991 0.0405
vn 0.0325 -0.9994 0.0146
vn 0.0361 -0.9992 -0.0191
vn 0.0183 -0.9990 -0.0407
vn -0.0079 -0.9992 -0.0383
vn -0.0310 -0.9994 -0.0139
vn -0.0356 0.9992 0.0172
vn -0.0183 0.9990 0.0406
vn 0.0087 0.9991 0.0405
vn 0.0325 0.9994 0.0146
vn 0.0361 0.9992 -0.0191
vn 0.0183 0.9990 -0.0407
vn -0.0079 0.9992 -0.0383
vn -0.0310 0.9994 -0.0139
vn -0.2582 0.7916 0.5537
vn -0.6219 0.7100 0.3303
vn -0.9990 0.0000 0.0452
vn 0.6075 -0.0000 0.7943
vn -0.6219 -0.7100 0.3303
vn -0.2582 -0.7916 0.5537
vn 0.1467 -0.7100 0.6887
vn 0.1467 0.7100 0.6887
vn 0.8140 -0.0000 -0.5809
vn 0.5987 -0.5916 -0.5401
vn 0.6106 -0.6690 -0.4237
vn 0.9828 -0.0000 -0.1845
vn 0.2962 -0.7133 -0.6352
vn 0.2821 -0.7445 -0.6051
vn 0.0289 -0.5916 -0.8057
vn -0.0679 -0.6690 -0.7401
vn -0.0783 -0.0000 -0.9969
vn -0.4904 -0.0000 -0.8715
vn 0.0289 0.5916 -0.8057
vn -0.0679 0.6690 -0.7401
vn 0.2962 0.7133 -0.6352
vn 0.2821 0.7445 -0.6051
vn 0.5987 0.5916 -0.5401
vn 0.6106 0.6690 -0.4237
vn 0.9492 -0.0000 -0.3146
vn 0.5987 -0.6404 -0.4811
vn 0.2874 -0.7331 -0.6164
vn -0.0163 -0.6404 -0.7679
vn -0.3692 0.0000 -0.9294
vn -0.0163 0.6404 -0.7679
vn 0.2874 0.7331 -0.6164
vn 0.5987 0.6404 -0.4811
# 58 vertex normals

vt 0.5000 0.0000 0.0000
vt 0.7704 0.0000 0.4074
vt 0.8750 0.0000 1.0000
vt 0.7500 0.0000 1.0000
vt 0.2500 0.0000 1.0000
vt 0.1250 0.0000 1.0000
vt 0.0000 0.0000 1.0000
vt 0.5000 0.0000 1.0000
vt 0.3750 0.0000 1.0000
vt 0.6250 0.0000 1.0000
vt 0.8750 1.0000 1.0000
vt 0.7500 1.0000 1.0000
vt -0.1250 0.0000 1.0000
vt 0.0000 1.0000 1.0000
vt -0.1250 1.0000 1.0000
vt 0.1250 1.0000 1.0000
vt 0.2500 1.0000 1.0000
vt 0.3750 1.0000 1.0000
vt 0.5000 1.0000 1.0000
vt 0.6250 1.0000 1.0000
vt 0.5000 1.0000 0.0000
vt 0.1161 0.0000 0.4142
vt 0.7803 1.0000 0.4142
vt 0.2197 1.0000 -0.4142
vt 0.5214 1.0000 -0.4142
vt 0.2500 1.0000 -1.0000
vt 0.1250 1.0000 -1.0000
# 27 texture coords

g Cylinder005
usemtl wire_085028177
s 1
f 51/33/43 52/34/43 53/35/43 54/36/43 
f 51/33/43 55/37/43 56/38/43 52/39/43 
f 51/33/43 57/40/43 58/41/43 55/37/43 
f 51/33/43 54/36/43 59/42/43 57/40/43 
s 8
f 60/36/44 61/35/45 62/43/45 63/44/44 
f 61/45/45 64/39/46 65/46/46 62/47/45 
f 64/39/46 66/38/47 67/48/47 65/46/46 
f 66/38/47 68/37/48 69/49/48 67/48/47 
f 68/37/48 70/41/49 71/50/49 69/49/48 
f 70/41/49 72/40/50 73/51/50 71/50/49 
f 72/40/50 74/42/51 75/52/51 73/51/50 
f 74/42/51 60/36/44 63/44/44 75/52/51 
s 1
f 76/53/52 77/52/52 78/44/52 79/43/52 
f 76/53/52 79/47/52 80/46/52 81/48/52 
f 76/53/52 81/48/52 82/49/52 83/50/52 
f 76/53/52 83/50/52 84/51/52 77/52/52 
s off
f 54/36/53 53/35/53 61/35/53 60/36/53 
f 53/45/54 52/39/54 64/39/54 61/45/54 
f 52/39/55 56/38/55 66/38/55 64/39/55 
f 56/38/56 55/37/56 68/37/56 66/38/56 
f 55/37/57 58/41/57 70/41/57 68/37/57 
f 58/41/58 57/40/58 72/40/58 70/41/58 
f 57/40/59 59/42/59 74/42/59 72/40/59 
f 59/42/60 54/36/60 60/36/60 74/42/60 
f 79/43/61 78/44/61 63/44/61 62/43/61 
f 80/46/62 79/47/62 62/47/62 65/46/62 
f 81/48/63 80/46/63 65/46/63 67/48/63 
f 82/49/64 81/48/64 67/48/64 69/49/64 
f 83/50/65 82/49/65 69/49/65 71/50/65 
f 84/51/66 83/50/66 71/50/66 73/51/66 
f 77/52/67 84/51/67 73/51/67 75/52/67 
f 78/44/68 77/52/68 75/52/68 63/44/68 
s 2
f 85/40/69 86/41/70 87/37/71 88/54/72 
f 87/37/71 89/38/73 90/39/74 88/54/72 
f 90/39/74 91/45/75 88/54/72 
f 92/42/76 85/40/69 88/54/72 
f 93/36/77 94/35/78 95/43/79 96/44/80 
f 94/45/78 97/39/81 98/46/82 95/47/79 
f 97/39/81 99/38/83 100/48/84 98/46/82 
f 99/38/83 101/37/85 102/49/86 100/48/84 
f 101/37/85 103/41/87 104/50/88 102/49/86 
f 103/41/87 105/40/89 106/51/90 104/50/88 
f 105/40/89 107/42/91 108/52/92 106/51/90 
f 107/42/91 93/36/77 96/44/80 108/52/92 
f 96/44/80 95/43/79 98/55/82 106/56/90 
f 98/55/82 100/57/84 102/58/86 106/56/90 
f 102/58/86 104/59/88 106/56/90 
f 108/52/92 96/44/80 106/56/90 
f 109/36/93 110/35/94 94/35/78 93/36/77 
f 110/45/94 111/39/95 97/39/81 94/45/78 
f 111/39/95 112/38/96 99/38/83 97/39/81 
f 112/38/96 113/37/97 101/37/85 99/38/83 
f 113/37/97 114/41/98 103/41/87 101/37/85 
f 114/41/98 115/40/99 105/40/89 103/41/87 
f 115/40/99 116/42/100 107/42/91 105/40/89 
f 116/42/100 109/36/93 93/36/77 107/42/91 
f 88/36/72 91/35/75 110/35/94 109/36/93 
f 91/45/75 90/39/74 111/39/95 110/45/94 
f 90/39/74 89/38/73 112/38/96 111/39/95 
f 89/38/73 87/37/71 113/37/97 112/38/96 
f 87/37/71 86/41/70 114/41/98 113/37/97 
f 86/41/70 85/40/69 115/40/99 114/41/98 
f 85/40/69 92/42/76 116/42/100 115/40/99 
f 92/42/76 88/36/72 109/36/93 116/42/100 
# 60 polygons - 4 triangles

#
# object Cylinder006
#

v  65.6409 -1.9009 -6.8503
v  56.3867 -1.9009 -25.0226
v  74.9578 -1.9009 -25.2627
v  88.8243 -1.9009 -13.9249
v  42.2194 -1.9009 1.0164
v  41.9793 -1.9009 -14.1374
v  75.5374 -1.9009 11.3219
v  56.1743 -1.9009 11.5620
v  89.0644 -1.9009 1.2289
v  92.2870 -2.1604 -14.9564
v  76.4082 -2.1604 -27.9395
v  76.4082 1.9348 -27.9395
v  92.2870 1.9348 -14.9564
v  55.1419 -2.1604 -27.6645
v  55.1419 1.9348 -27.6645
v  38.6437 -2.1604 -15.1997
v  38.6437 1.9348 -15.1997
v  38.9186 -2.1604 2.1534
v  38.9186 1.9348 2.1534
v  54.8988 -2.1604 14.2294
v  54.8988 1.9348 14.2294
v  63.2149 -1.3271 16.9181
v  68.8402 -1.3271 16.8247
v  68.8402 1.1015 16.8247
v  63.2149 1.1015 16.9181
v  77.0719 -2.1604 13.9545
v  92.5620 -2.1604 2.3967
v  92.5620 1.9348 2.3967
v  77.0719 1.9348 13.9545
v  65.6409 1.6753 -6.8503
v  89.0644 1.6753 1.2289
v  88.8243 1.6753 -13.9249
v  74.9578 1.6753 -25.2627
v  56.3867 1.6753 -25.0226
v  41.9793 1.6753 -14.1374
v  42.2194 1.6753 1.0164
v  56.1743 1.6753 11.5620
v  75.5374 1.6753 11.3219
v  62.2267 -1.3271 14.1943
v  62.2267 1.1015 14.1943
v  69.7609 1.1015 14.1009
v  69.7609 -1.3271 14.1009
v  65.9210 5.1754 64.2283
v  62.0985 3.5921 64.2283
v  60.5151 -0.2305 64.2283
v  71.3268 -0.2305 64.2283
v  62.0985 -4.0530 64.2283
v  65.9210 -5.6363 64.2283
v  69.7435 -4.0530 64.2283
v  69.7435 3.5921 64.2283
v  67.2537 -0.2305 61.5946
v  66.8634 -1.1729 61.5946
v  66.8634 -1.1729 14.3709
v  67.2537 -0.2305 14.3709
v  65.9210 -1.5632 61.5946
v  65.9210 -1.5632 14.3709
v  64.9786 -1.1729 61.5946
v  64.9786 -1.1729 14.3709
v  64.5882 -0.2305 61.5946
v  64.5882 -0.2305 14.3709
v  64.9786 0.7119 61.5946
v  64.9786 0.7119 14.3709
v  65.9210 1.1023 61.5946
v  65.9210 1.1023 14.3709
v  66.8634 0.7119 61.5946
v  66.8634 0.7119 14.3709
v  68.4916 -0.2305 61.6019
v  67.7387 -2.0482 61.6019
v  65.9210 -2.8011 61.6019
v  64.1033 -2.0482 61.6019
v  63.3504 -0.2305 61.6019
v  64.1033 1.5872 61.6019
v  65.9210 2.3401 61.6019
v  67.7387 1.5872 61.6019
v  68.4916 -0.2305 63.6800
v  67.7387 -2.0482 63.6800
v  65.9210 -2.8011 63.6800
v  64.1033 -2.0482 63.6800
v  63.3504 -0.2305 63.6800
v  64.1033 1.5872 63.6800
v  65.9210 2.3401 63.6800
v  67.7387 1.5872 63.6800
v  71.3268 -0.2305 63.7051
v  69.7435 -4.0530 63.7051
v  65.9210 -5.6363 63.7051
v  62.0985 -4.0530 63.7051
v  60.5151 -0.2305 63.7051
v  62.0985 3.5921 63.7051
v  65.9210 5.1754 63.7051
v  69.7435 3.5921 63.7051
# 90 vertices

vn 0.0000 -1.0000 -0.0000
vn 0.9999 0.0000 -0.0143
vn 0.6980 0.0000 -0.7161
vn 0.1062 0.0000 -0.9943
vn -0.6292 0.0000 -0.7773
vn -0.9994 0.0000 0.0334
vn -0.8836 0.0000 0.4683
vn -0.4075 0.0000 0.9132
vn 0.2033 0.0000 0.9791
vn 0.6268 0.0000 0.7791
vn 0.0000 1.0000 -0.0000
vn -0.0356 -0.9992 0.0172
vn -0.0183 -0.9990 0.0406
vn 0.0087 -0.9991 0.0405
vn 0.0325 -0.9994 0.0146
vn 0.0361 -0.9992 -0.0191
vn 0.0183 -0.9990 -0.0407
vn -0.0079 -0.9992 -0.0383
vn -0.0310 -0.9994 -0.0139
vn -0.0356 0.9992 0.0172
vn -0.0183 0.9990 0.0406
vn 0.0087 0.9991 0.0405
vn 0.0325 0.9994 0.0146
vn 0.0361 0.9992 -0.0191
vn 0.0183 0.9990 -0.0407
vn -0.0079 0.9992 -0.0383
vn -0.0310 0.9994 -0.0139
vn -0.4183 0.0000 0.9083
vn -0.4070 0.1451 0.9018
vn -0.4070 -0.1451 0.9018
vn -0.4044 0.0000 0.9146
vn -0.9961 0.0000 -0.0882
vn 0.7233 0.0000 0.6906
vn -0.2821 0.7445 0.6051
vn -0.6106 0.6690 0.4237
vn -0.9828 -0.0000 0.1845
vn 0.4904 -0.0000 0.8715
vn -0.6106 -0.6690 0.4237
vn -0.2821 -0.7445 0.6051
vn 0.0679 -0.6690 0.7401
vn 0.0679 0.6690 0.7401
vn 0.7881 -0.0000 -0.6155
vn 0.6051 -0.5447 -0.5806
vn 0.6106 -0.6690 -0.4237
vn 0.9828 0.0000 -0.1845
vn 0.3155 -0.6654 -0.6766
vn 0.2821 -0.7445 -0.6051
vn 0.0558 -0.5447 -0.8367
vn -0.0679 -0.6690 -0.7401
vn -0.0351 -0.0000 -0.9994
vn -0.4904 0.0000 -0.8715
vn 0.0558 0.5447 -0.8367
vn -0.0679 0.6690 -0.7401
vn 0.3155 0.6654 -0.6766
vn 0.2821 0.7445 -0.6051
vn 0.6051 0.5447 -0.5806
vn 0.6106 0.6690 -0.4237
vn 0.9832 -0.0000 -0.1825
vn 0.6109 -0.6708 -0.4205
vn 0.2803 -0.7484 -0.6012
vn -0.0706 -0.6708 -0.7383
vn -0.4922 -0.0000 -0.8705
vn -0.0706 0.6708 -0.7383
vn 0.2803 0.7484 -0.6012
vn 0.6109 0.6708 -0.4205
vn 0.7896 -0.0000 -0.6137
vn 0.6048 -0.5474 -0.5785
vn 0.3145 -0.6681 -0.6744
vn 0.0544 -0.5474 -0.8351
vn -0.0374 0.0000 -0.9993
vn 0.0544 0.5474 -0.8351
vn 0.3145 0.6681 -0.6744
vn 0.6048 0.5474 -0.5785
vn 0.9834 0.0000 -0.1816
vn 0.6111 -0.6716 -0.4189
vn 0.2794 -0.7503 -0.5992
vn -0.0719 -0.6716 -0.7374
vn -0.4930 -0.0000 -0.8700
vn -0.0719 0.6716 -0.7374
vn 0.2794 0.7503 -0.5992
vn 0.6111 0.6716 -0.4189
# 81 vertex normals

vt 0.5000 0.0000 0.0000
vt 0.7704 0.0000 0.4074
vt 0.8750 0.0000 1.0000
vt 0.7500 0.0000 1.0000
vt 0.2500 0.0000 1.0000
vt 0.1250 0.0000 1.0000
vt 0.0000 0.0000 1.0000
vt 0.5000 0.0000 1.0000
vt 0.3750 0.0000 1.0000
vt 0.6250 0.0000 1.0000
vt 0.8750 1.0000 1.0000
vt 0.7500 1.0000 1.0000
vt -0.1250 0.0000 1.0000
vt 0.0000 1.0000 1.0000
vt -0.1250 1.0000 1.0000
vt 0.1250 1.0000 1.0000
vt 0.2500 1.0000 1.0000
vt 0.3750 1.0000 1.0000
vt 0.5000 1.0000 1.0000
vt 0.6250 1.0000 1.0000
vt 0.5000 1.0000 0.0000
vt 0.1161 0.0000 0.4142
vt 0.7803 1.0000 0.4142
vt 0.2197 1.0000 -0.4142
vt 0.5214 1.0000 -0.4142
vt 0.2500 1.0000 -1.0000
vt 0.1250 1.0000 -1.0000
# 27 texture coords

g Cylinder006
usemtl wire_085028177
s 1
f 117/60/101 118/61/101 119/62/101 120/63/101 
f 117/60/101 121/64/101 122/65/101 118/66/101 
f 117/60/101 123/67/101 124/68/101 121/64/101 
f 117/60/101 120/63/101 125/69/101 123/67/101 
s 8
f 126/63/102 127/62/103 128/70/103 129/71/102 
f 127/72/103 130/66/104 131/73/104 128/74/103 
f 130/66/104 132/65/105 133/75/105 131/73/104 
f 132/65/105 134/64/106 135/76/106 133/75/105 
f 134/64/106 136/68/107 137/77/107 135/76/106 
f 138/68/108 139/67/108 140/78/108 141/77/108 
f 142/67/109 143/69/110 144/79/110 145/78/109 
f 143/69/110 126/63/102 129/71/102 144/79/110 
s 1
f 146/80/111 147/79/111 148/71/111 149/70/111 
f 146/80/111 149/74/111 150/73/111 151/75/111 
f 146/80/111 151/75/111 152/76/111 153/77/111 
f 146/80/111 153/77/111 154/78/111 147/79/111 
s off
f 120/63/112 119/62/112 127/62/112 126/63/112 
f 119/72/113 118/66/113 130/66/113 127/72/113 
f 118/66/114 122/65/114 132/65/114 130/66/114 
f 122/65/115 121/64/115 134/64/115 132/65/115 
f 121/64/116 124/68/116 136/68/116 134/64/116 
f 124/68/117 123/67/117 142/67/117 136/68/117 
f 123/67/118 125/69/118 143/69/118 142/67/118 
f 125/69/119 120/63/119 126/63/119 143/69/119 
f 149/70/120 148/71/120 129/71/120 128/70/120 
f 150/73/121 149/74/121 128/74/121 131/73/121 
f 151/75/122 150/73/122 131/73/122 133/75/122 
f 152/76/123 151/75/123 133/75/123 135/76/123 
f 153/77/124 152/76/124 135/76/124 137/77/124 
f 154/78/125 153/77/125 137/77/125 145/78/125 
f 147/79/126 154/78/126 145/78/126 144/79/126 
f 148/71/127 147/79/127 144/79/127 129/71/127 
f 137/77/128 136/68/128 155/68/128 156/77/128 
f 145/78/129 137/77/129 156/77/129 157/78/129 
f 136/68/130 142/67/130 158/67/130 155/68/130 
f 142/67/131 145/78/131 157/78/131 158/67/131 
f 157/78/111 156/77/111 141/77/111 140/78/111 
f 156/77/132 155/68/132 138/68/132 141/77/132 
f 155/68/101 158/67/101 139/67/101 138/68/101 
f 158/67/133 157/78/133 140/78/133 139/67/133 
s 2
f 159/67/134 160/68/135 161/64/136 162/81/137 
f 161/64/136 163/65/138 164/66/139 162/81/137 
f 164/66/139 165/72/140 162/81/137 
f 166/69/141 159/67/134 162/81/137 
f 167/63/142 168/62/143 169/70/144 170/71/145 
f 168/72/143 171/66/146 172/73/147 169/74/144 
f 171/66/146 173/65/148 174/75/149 172/73/147 
f 173/65/148 175/64/150 176/76/151 174/75/149 
f 175/64/150 177/68/152 178/77/153 176/76/151 
f 177/68/152 179/67/154 180/78/155 178/77/153 
f 179/67/154 181/69/156 182/79/157 180/78/155 
f 181/69/156 167/63/142 170/71/145 182/79/157 
f 170/71/145 169/70/144 172/82/147 180/83/155 
f 172/82/147 174/84/149 176/85/151 180/83/155 
f 176/85/151 178/86/153 180/83/155 
f 182/79/157 170/71/145 180/83/155 
f 183/63/158 184/62/159 168/62/143 167/63/142 
f 184/72/159 185/66/160 171/66/146 168/72/143 
f 185/66/160 186/65/161 173/65/148 171/66/146 
f 186/65/161 187/64/162 175/64/150 173/65/148 
f 187/64/162 188/68/163 177/68/152 175/64/150 
f 188/68/163 189/67/164 179/67/154 177/68/152 
f 189/67/164 190/69/165 181/69/156 179/67/154 
f 190/69/165 183/63/158 167/63/142 181/69/156 
f 191/63/166 192/62/167 184/62/159 183/63/158 
f 192/72/167 193/66/168 185/66/160 184/72/159 
f 193/66/168 194/65/169 186/65/161 185/66/160 
f 194/65/169 195/64/170 187/64/162 186/65/161 
f 195/64/170 196/68/171 188/68/163 187/64/162 
f 196/68/171 197/67/172 189/67/164 188/68/163 
f 197/67/172 198/69/173 190/69/165 189/67/164 
f 198/69/173 191/63/166 183/63/158 190/69/165 
f 199/63/174 200/62/175 192/62/167 191/63/166 
f 200/72/175 201/66/176 193/66/168 192/72/167 
f 201/66/176 202/65/177 194/65/169 193/66/168 
f 202/65/177 203/64/178 195/64/170 194/65/169 
f 203/64/178 204/68/179 196/68/171 195/64/170 
f 204/68/179 205/67/180 197/67/172 196/68/171 
f 205/67/180 206/69/181 198/69/173 197/67/172 
f 206/69/181 199/63/174 191/63/166 198/69/173 
f 162/63/137 165/62/140 200/62/175 199/63/174 
f 165/72/140 164/66/139 201/66/176 200/72/175 
f 164/66/139 163/65/138 202/65/177 201/66/176 
f 163/65/138 161/64/136 203/64/178 202/65/177 
f 161/64/136 160/68/135 204/68/179 203/64/178 
f 160/68/135 159/67/134 205/67/180 204/68/179 
f 159/67/134 166/69/141 206/69/181 205/67/180 
f 166/69/141 162/63/137 199/63/174 206/69/181 
# 84 polygons - 4 triangles

